<?xml version="1.0" encoding="UTF-8" standalone="no"?>
<!-- Created with Inkscape (http://www.inkscape.org/) -->

<svg
   version="1.1"
   id="svg1"
   width="1122.5197"
   height="793.70081"
   viewBox="0 0 1122.5197 793.70081"
   xmlns="http://www.w3.org/2000/svg"
   xmlns:svg="http://www.w3.org/2000/svg">
  <defs
     id="defs1" />
  <g
     id="g1">
    <path
       id="path1"
       d="m 179.94766,698.12873 c 0,8.51118 2.46264,15.12343 7.38177,19.83088 5.22849,4.47412 12.45404,6.71266 21.67972,6.71266 h 15.14639 c 16.09286,0 29.13499,9.50642 29.13499,21.22479 v 43.95279 h -55.3479 c -35.66831,0 -63.35451,-8.06229 -83.02492,-24.18983 C 95.535212,749.53248 85.856231,726.80745 85.856231,697.45835 V 347.4781 c 0,-12.67817 6.916182,-24.83659 19.226279,-33.81142 12.31315,-8.96303 29.01553,-14.00416 46.42547,-14.00416 h 28.43968 z"
       style="fill:#1e3a8a;fill-opacity:1;fill-rule:nonzero;stroke:none;stroke-width:3.00759" />
    <path
       id="path2"
       d="m 800.77226,785.18967 c -38.85991,0 -67.38537,-8.45508 -85.5825,-25.37998 -17.88774,-17.1523 -26.83774,-42.40529 -26.83774,-75.74419 V 364.77216 c 0,-40.97593 41.782,-74.18785 93.33794,-74.18785 h 1.04142 v 394.20768 c 0,9.32035 2.30948,16.55574 6.93762,21.70025 4.63121,4.90236 11.41569,7.35944 20.35345,7.35944 h 18.44828 c 14.84929,0 26.89903,9.57434 26.89903,21.37541 v 49.96258 z M 692.90971,401.64017 h 136.24406 c 6.94989,0 13.61491,2.19128 18.53405,6.1043 4.91606,3.91006 7.68194,9.20519 7.68194,14.73066 v 24.30501 c 0,12.43601 -12.68378,22.51831 -28.3325,22.51831 H 645.06303 c -3.43359,0 -6.20864,-2.21492 -6.20864,-4.9378 v -19.74818 c 0,-23.72912 24.2036,-42.9723 54.05532,-42.9723 z"
       style="fill:#1e3a8a;fill-opacity:1;fill-rule:nonzero;stroke:none;stroke-width:3.00759" />
    <path
       id="path3"
       d="m 920.25269,278.36683 c 17.49263,-16.86583 56.71398,-16.86583 74.20662,0 17.21699,16.58824 17.21699,53.80473 0,70.39297 -17.49264,16.86583 -56.71399,16.86583 -74.20662,0 -17.20472,-16.58824 -17.20472,-53.80473 0,-70.39297 z m 14.57361,143.5531 h 45.05939 c 8.05255,0 14.57362,6.18404 14.57362,13.82107 v 259.09783 c 4.33104,42.99594 -28.89609,81.16927 -74.20662,85.27425 V 435.741 c 0,-7.63703 6.52106,-13.82107 14.57361,-13.82107 z"
       style="fill:#ff0000;fill-opacity:1;fill-rule:nonzero;stroke:none;stroke-width:3.00759" />
    <path
       id="path4"
       d="m 221.14176,193.71139 c 43.77475,-32.93333 97.71968,-73.55062 137.1132,-103.2188 43.68825,-32.910643 80.46352,-62.152148 95.34184,-71.651814 3.43101,-2.190669 6.07324,0.06627 3.99716,3.42668 -11.48353,18.58767 -58.18855,78.853184 -158.42793,219.866764 l -23.12655,32.54187 c -5.85321,8.23556 -14.8137,13.04285 -24.27467,13.04285 l -70.20391,-0.0682 -6.14496,-0.0118 c -10.67604,0 -20.1049,-7.72845 -23.2416,-19.04529 -3.126,-11.31686 0.76277,-23.5738 9.59748,-30.21089 9.17994,-6.90696 35.76434,-26.90124 59.36994,-44.67132 z m 271.51791,92.71157 c 0,-0.71768 3.55424,-5.53683 7.90332,-10.71483 4.34912,-5.18096 7.90334,-10.96097 7.90334,-12.85008 0,-1.87428 -14.34267,-42.72288 -31.87559,-90.73942 -11.34246,-31.05906 -21.21293,-58.61867 -26.64864,-74.315759 -2.62552,-7.541602 -1.75838,-17.654406 1.39974,-22.624805 l 5.13329,-8.108033 39.5086,105.881937 c 21.72409,58.2361 40.14557,107.8867 40.94046,110.33039 1.10801,3.452 -3.69073,4.44845 -21.42169,4.44845 -12.56555,0 -22.84283,-0.59016 -22.84283,-1.30785 z m 46.62774,-43.79052 c -2.23743,-5.96684 -4.37051,-11.71126 -6.31623,-16.9812 -5.84251,-15.9284 2.23745,-32.14744 17.55432,-35.20501 39.32928,-7.85595 106.89696,-20.21671 108.31008,-19.3715 1.07592,0.64947 -13.82346,27.15332 -33.10135,58.9093 l -25.43625,41.89845 c -6.01113,9.9052 -16.07695,15.84833 -26.85738,15.84833 h -17.22781 z m 151.07852,38.6244 4.44278,-6.48881 -16.27771,-43.70748 c -14.08306,-37.81179 -15.90031,-44.40439 -13.46482,-48.78168 2.42481,-4.38023 5.51868,2.12934 22.9151,48.1678 11.06144,29.27375 20.11561,54.13464 20.11561,55.24675 0,1.12398 -4.99679,2.03739 -11.09357,2.03739 -11.04004,0 -11.06947,-0.0444 -6.63739,-6.47397 z m -41.56674,-39.74837 c 0,-3.95022 1.31678,-7.11158 2.96809,-7.11158 1.65134,0 2.9681,3.16136 2.9681,7.11158 0,3.95023 -1.31676,7.11455 -2.9681,7.11455 -1.65131,0 -2.96809,-3.16432 -2.96809,-7.11455 z m 9.8892,0 c 0,-3.95022 1.31678,-7.11158 2.95739,-7.11158 1.65401,0 2.97078,3.16136 2.97078,7.11158 0,3.95023 -1.31677,7.11455 -2.97078,7.11455 -1.64061,0 -2.95739,-3.16432 -2.95739,-7.11455 z m -9.8892,-17.78193 c 0,-3.95021 1.31678,-7.11158 2.96809,-7.11158 1.65134,0 2.9681,3.16137 2.9681,7.11158 0,3.95023 -1.31676,7.11456 -2.9681,7.11456 -1.65131,0 -2.96809,-3.16433 -2.96809,-7.11456 z m 9.8892,0 c 0,-3.95021 1.31678,-7.11158 2.95739,-7.11158 1.65401,0 2.97078,3.16137 2.97078,7.11158 0,3.95023 -1.31677,7.11456 -2.97078,7.11456 -1.64061,0 -2.95739,-3.16433 -2.95739,-7.11456 z M 403.71045,195.27427 v -14.21426 h 15.81737 v 28.4404 h -8.86416 c -3.8379,0 -6.95321,-3.45199 -6.95321,-7.70174 z m 19.77036,0 v -14.21426 h 15.08672 c 0.39611,0 0.71994,0.36181 0.71994,0.80071 v 18.88219 c 0,4.84288 -3.53283,8.7575 -7.90333,8.7575 h -7.90333 z m 118.35719,-24.55839 4.67295,-6.34644 -16.20543,-43.49989 c -9.68044,-25.996719 -15.7451,-45.667755 -15.06529,-48.852843 0.62893,-2.930044 1.98586,-4.795426 3.02161,-4.148918 3.19024,2.004766 39.63439,100.392551 38.09548,102.859951 -0.78151,1.27522 -5.43571,3.22069 -10.31741,4.32093 -8.87485,2.00478 -8.87485,2.00478 -4.2126,-4.33279 z M 403.71045,153.79102 c 0.0535,-4.62045 3.47126,-8.33934 7.64373,-8.29486 h 8.17364 v 28.45227 h -15.81737 z m 19.77036,5.93127 v -14.22613 h 8.41718 c 4.08683,0 7.38948,3.67441 7.38948,8.20293 v 20.24934 H 423.48081 Z M 273.26944,97.503338 V 56.610251 h 12.84928 c 7.45368,0.403327 13.20254,7.434839 12.83856,15.705985 v 44.451854 c 0,2.65126 -1.15086,5.15427 -3.10461,6.70529 l -7.82034,6.22189 c -0.83772,0.6732 -1.67273,1.3197 -2.48904,1.94545 -5.45712,4.17265 -11.52176,0.90452 -11.8242,-6.41762 -0.28102,-7.07599 -0.44965,-16.62237 -0.44965,-27.719762 z M 476.23478,87.144395 469.1879,68.042761 490.30715,62.980427 c 11.62615,-2.778797 21.38956,-4.750941 21.7134,-4.356512 0.78417,0.928242 -22.94721,41.681955 -26.20971,45.018285 -1.68344,1.72599 -4.89242,-3.787109 -9.57606,-16.497805 z"
       style="fill:#1e3a8a;fill-opacity:1;fill-rule:nonzero;stroke:none;stroke-width:2.81729"
       transform="matrix(1.0743969,0,0,1.0247277,-53.761369,-2.5206557)" />
    <path
       id="path5"
       d="m 565.13893,739.73412 c -37.35145,24.55321 -73.45482,39.61317 -108.3424,45.15507 -34.87756,5.52831 -67.42927,1.49325 -97.64719,-12.13047 -30.12973,-14.02403 -56.73503,-37.27569 -79.82049,-69.78122 L 251.9623,664.44186 c -24.03009,-33.819 -37.92689,-67.05387 -41.69739,-99.69149 -3.51907,-32.79753 2.98673,-63.82285 19.51445,-93.05755 16.52774,-29.23469 42.68859,-55.61967 78.48055,-79.16655 33.71606,-22.1737 67.56833,-33.97309 101.56542,-35.38459 34.00712,-1.42505 66.82215,7.28096 98.46164,26.10645 31.8889,18.65396 61.25451,46.86089 88.07669,84.63001 4.00953,7.03159 4.97318,15.2887 2.65533,22.96745 -2.30223,7.67925 -7.68248,14.15182 -14.95654,17.98916 L 339.95161,669.38487 301.58368,615.36347 498.43572,485.89666 c -22.15164,-26.34861 -46.06457,-42.35855 -71.77701,-47.99975 -25.59103,-6.04685 -50.7206,-0.96282 -75.35198,15.24922 -30.08571,19.78298 -47.49891,43.47288 -52.2401,71.08469 -4.49124,27.4432 4.10683,56.42419 25.78766,86.94104 l 30.88035,43.48449 c 20.11904,28.32272 44.38692,44.26704 72.77943,47.81888 28.40364,3.56201 58.8102,-5.3252 91.23434,-26.64902 10.974,-7.21227 20.97735,-15.67399 30.01412,-25.36184 7.05689,-7.57247 17.11358,-20.98919 22.36765,-29.82803 2.90444,-4.88288 5.52457,-9.86412 7.87143,-14.95149 l 7.78023,-20.51822 83.47815,9.85465 c -6.43873,22.43014 -15.79673,43.69111 -28.10317,63.79361 -6.36799,10.38494 -18.11681,26.38916 -26.19268,35.60633 -15.39065,17.6033 -32.66019,32.7097 -51.82521,45.3129 z"
       style="fill:#ff0000;fill-opacity:1;fill-rule:nonzero;stroke:none;stroke-width:3.00759" />
  </g>
</svg>
