<?xml version="1.0" encoding="UTF-8" standalone="no"?>
<!-- Created with Inkscape (http://www.inkscape.org/) -->

<svg
   version="1.1"
   id="svg1"
   width="1122.5197"
   height="793.70081"
   viewBox="0 0 1122.5197 793.70081"
   sodipodi:docname="letiLogo.svg"
   inkscape:version="1.3.2 (091e20e, 2023-11-25, custom)"
   xmlns:inkscape="http://www.inkscape.org/namespaces/inkscape"
   xmlns:sodipodi="http://sodipodi.sourceforge.net/DTD/sodipodi-0.dtd"
   xmlns="http://www.w3.org/2000/svg"
   xmlns:svg="http://www.w3.org/2000/svg">
  <defs
     id="defs1" />
  <sodipodi:namedview
     id="namedview1"
     pagecolor="#ffffff"
     bordercolor="#000000"
     borderopacity="0.25"
     inkscape:showpageshadow="2"
     inkscape:pageopacity="0.0"
     inkscape:pagecheckerboard="0"
     inkscape:deskcolor="#d1d1d1"
     inkscape:zoom="0.94620038"
     inkscape:cx="561.19191"
     inkscape:cy="396.8504"
     inkscape:window-width="1920"
     inkscape:window-height="986"
     inkscape:window-x="-11"
     inkscape:window-y="-11"
     inkscape:window-maximized="1"
     inkscape:current-layer="g1">
    <inkscape:page
       x="0"
       y="0"
       inkscape:label="1"
       id="page1"
       width="1122.5197"
       height="793.70081"
       margin="0"
       bleed="0"
       inkscape:export-filename="letiLogo.svg"
       inkscape:export-xdpi="96"
       inkscape:export-ydpi="96" />
  </sodipodi:namedview>
  <g
     id="g1"
     inkscape:groupmode="layer"
     inkscape:label="1">
    <path
       id="path1"
       d="m 217.5258,683.742 c 0,8.3058 2.29211,14.7585 6.87061,19.35234 4.86645,4.36616 11.59166,6.55068 20.1785,6.55068 h 14.09758 c 14.9785,0 27.11753,9.27702 27.11753,20.71262 V 773.2498 H 234.2747 c -33.19845,0 -58.96752,-7.86774 -77.27584,-23.60611 -18.04035,-15.73836 -27.04911,-37.91501 -27.04911,-66.55589 V 341.55293 c 0,-12.37224 6.43727,-24.23725 17.89494,-32.99551 11.46053,-8.74674 27.00635,-13.66624 43.21073,-13.66624 h 26.47038 z"
       style="fill:#000000;fill-opacity:0;fill-rule:nonzero;stroke:none;stroke-width:2.86637" />
    <path
       id="path2"
       d="m 795.36126,768.70207 c -36.16906,0 -62.71926,-8.25104 -79.65632,-24.76753 -16.64911,-16.7384 -24.97937,-41.38201 -24.97937,-73.91641 V 358.42967 c 0,-39.98714 38.8888,-72.39762 86.87474,-72.39762 h 0.9693 v 384.69504 c 0,9.09545 2.14956,16.15624 6.45723,21.17661 4.31052,4.78405 10.62521,7.18184 18.94407,7.18184 h 17.17082 c 13.82105,0 25.0364,9.3433 25.0364,20.8596 v 48.75693 z M 694.96767,394.40801 h 126.80981 c 6.46864,0 12.67214,2.13841 17.25065,5.957 4.57565,3.81571 7.15,8.98306 7.15,14.3752 v 23.7185 c 0,12.13592 -11.80548,21.97492 -26.37061,21.97492 H 650.43414 c -3.19583,0 -5.77872,-2.16147 -5.77872,-4.81864 v -19.27164 c 0,-23.15651 22.52762,-41.93534 50.31225,-41.93534 z"
       style="fill:#000000;fill-opacity:0;fill-rule:nonzero;stroke:none;stroke-width:2.86637" />
    <path
       id="path3"
       d="m 906.56823,274.10939 c 16.28135,-16.45885 52.78681,-16.45885 69.06817,0 16.02477,16.18795 16.02477,52.50636 0,68.69431 -16.28136,16.45885 -52.78682,16.45885 -69.06817,0 -16.01337,-16.18795 -16.01337,-52.50636 0,-68.69431 z m 13.56446,140.08901 h 41.93924 c 7.49495,0 13.56447,6.03482 13.56447,13.48756 V 680.5315 c 4.03113,41.9584 -26.89517,79.21057 -69.06817,83.21649 V 427.68596 c 0,-7.45274 6.06951,-13.48756 13.56446,-13.48756 z"
       style="fill:#000000;fill-opacity:0;fill-rule:nonzero;stroke:none;stroke-width:2.86637" />
    <path
       id="path4"
       d="M 219.10519,191.96211 C 265.73411,159.95799 323.19636,120.48672 365.1584,91.655628 422.47526,52.265051 470.79761,19.134082 472.53379,18.041821 475.29629,16.28671 432.80113,71.427177 302.21677,239.01869 l -24.63442,31.62371 c -6.23486,8.00319 -15.7796,12.67484 -25.85744,12.67484 l -74.78133,-0.0663 -6.54561,-0.0115 c -11.37214,0 -21.41578,-7.51038 -24.757,-18.50792 -3.32983,-10.99755 0.8125,-22.90867 10.22324,-29.35849 9.7785,-6.71208 38.09625,-26.14222 63.24098,-43.41091 z m 289.22135,90.09572 c 0,-0.69744 3.78596,-5.38061 8.41863,-10.41251 4.63268,-5.03478 8.41864,-10.65171 8.41864,-12.48752 0,-1.82139 -15.27784,-41.51746 -33.95393,-88.17921 -12.08201,-30.18273 -22.59604,-56.96475 -28.38617,-72.21894 -2.79671,-7.328815 -1.87303,-17.156285 1.49101,-21.986444 l 5.46798,-7.879268 42.08462,102.894482 c 23.14056,56.59297 42.76314,104.84268 43.60985,107.21742 1.18026,3.35459 -3.93136,4.32293 -22.81841,4.32293 -13.38486,0 -24.33222,-0.57351 -24.33222,-1.27094 z m 49.66795,-42.55497 c -2.38333,-5.79849 -4.65548,-11.38084 -6.72806,-16.50208 -6.22346,-15.47898 2.38333,-31.2404 18.69889,-34.2117 41.89362,-7.6343 113.86683,-19.6463 115.37209,-18.82494 1.14606,0.63115 -14.72477,26.38719 -35.25963,57.24718 l -27.09472,40.71628 c -6.40307,9.62573 -17.12521,15.40117 -28.60854,15.40117 h -18.35109 z m 160.92909,37.5346 4.73246,-6.30572 -17.33903,-42.47427 c -15.00131,-36.74494 -16.93705,-43.15153 -14.34276,-47.4053 2.5829,-4.25665 5.87851,2.06925 24.4092,46.80874 11.78267,28.44778 21.42718,52.60722 21.42718,53.68796 0,1.09226 -5.32258,1.9799 -11.81688,1.9799 -11.75986,0 -11.79122,-0.0432 -7.07017,-6.29131 z M 674.64663,238.4106 c 0,-3.83876 1.40263,-6.91093 3.16162,-6.91093 1.75899,0 3.16162,3.07217 3.16162,6.91093 0,3.83877 -1.40263,6.91381 -3.16162,6.91381 -1.75899,0 -3.16162,-3.07504 -3.16162,-6.91381 z m 10.53399,0 c 0,-3.83876 1.40263,-6.91093 3.15021,-6.91093 1.76185,0 3.16448,3.07217 3.16448,6.91093 0,3.83877 -1.40263,6.91381 -3.16448,6.91381 -1.74758,0 -3.15021,-3.07504 -3.15021,-6.91381 z m -10.53399,-17.28021 c 0,-3.83876 1.40263,-6.91093 3.16162,-6.91093 1.75899,0 3.16162,3.07217 3.16162,6.91093 0,3.83877 -1.40263,6.91382 -3.16162,6.91382 -1.75899,0 -3.16162,-3.07505 -3.16162,-6.91382 z m 10.53399,0 c 0,-3.83876 1.40263,-6.91093 3.15021,-6.91093 1.76185,0 3.16448,3.07217 3.16448,6.91093 0,3.83877 -1.40263,6.91382 -3.16448,6.91382 -1.74758,0 -3.15021,-3.07505 -3.15021,-6.91382 z M 413.57768,193.4809 v -13.81321 h 16.84867 v 27.63796 h -9.4421 c -4.08815,0 -7.40657,-3.3546 -7.40657,-7.48444 z m 21.05942,0 v -13.81321 h 16.07039 c 0.42193,0 0.76688,0.3516 0.76688,0.77813 v 18.34941 c 0,4.70624 -3.76316,8.51042 -8.41864,8.51042 h -8.41863 z m 126.07428,-23.86547 4.97763,-6.16739 -17.26205,-42.27253 C 538.11534,95.912277 531.65525,76.796262 532.37938,73.701041 c 0.66995,-2.847373 2.11535,-4.660123 3.21863,-4.031857 3.39825,1.948203 42.21862,97.559986 40.57937,99.957766 -0.83246,1.23924 -5.79013,3.12981 -10.99013,4.19901 -9.4535,1.94821 -9.4535,1.94821 -4.48727,-4.21053 z M 413.57768,153.1681 c 0.057,-4.49009 3.69758,-8.10406 8.1421,-8.06083 h 8.70657 v 27.64949 h -16.84867 z m 21.05942,5.76391 v -13.82474 h 8.966 c 4.35329,0 7.87127,3.57074 7.87127,7.97149 v 19.678 H 434.6371 Z M 274.63169,98.468573 V 58.729278 h 13.68706 c 7.93969,0.391947 14.06337,7.225065 13.67565,15.262841 v 43.197641 c 0,2.57647 -1.22588,5.00884 -3.30702,6.5161 l -8.33025,6.04635 c -0.89233,0.6542 -1.7818,1.28247 -2.65132,1.89056 -5.81294,4.05491 -12.27302,0.879 -12.59517,-6.23655 -0.29934,-6.87635 -0.47895,-16.15337 -0.47895,-26.937647 z M 490.83071,88.4019 l -7.50635,-18.56268 22.49626,-4.9195 c 12.3842,-2.700393 22.7842,-4.616893 23.12915,-4.233593 0.83531,0.902052 -24.44341,40.505893 -27.91862,43.748093 -1.79321,1.6773 -5.21141,-3.68026 -10.20044,-16.03232 z"
       style="fill:#000000;fill-opacity:0;fill-rule:nonzero;stroke:none;stroke-width:2.86637" />
    <path
       id="path5"
       d="m 555.15217,745.96344 c -38.24165,17.89694 -73.80917,26.8483 -106.72824,26.82524 -32.90766,-0.0346 -62.14054,-8.91677 -87.68723,-26.66962 -25.40131,-18.12462 -46.08156,-44.58962 -62.04076,-79.42095 l -18.91841,-41.29267 c -16.61491,-36.2406 -24.02148,-70.36296 -22.22828,-102.35555 2.04978,-32.10788 13.0171,-60.97067 32.89625,-86.57108 19.87916,-25.60042 48.14274,-46.97877 84.79075,-64.14659 34.52126,-16.16489 67.49734,-22.32363 98.93394,-18.46181 31.44801,3.8503 60.17059,17.26868 86.18483,40.24652 26.27082,22.85103 48.68726,54.50932 67.22935,94.98063 2.54869,7.38357 2.10395,15.47899 -1.26008,22.51384 -3.34978,7.03774 -9.33092,12.44141 -16.62631,15.01788 L 359.75599,643.67416 333.23145,585.78719 534.78551,491.40313 c -16.09319,-28.76193 -35.46774,-47.84336 -58.16356,-57.22124 -22.51907,-9.74966 -46.40656,-8.71504 -71.62826,3.10675 -30.80371,14.4213 -50.60304,34.54889 -59.40085,60.39715 -8.54122,25.72434 -5.31403,54.93873 9.67588,87.64029 l 21.34735,46.59547 c 13.90943,30.34988 33.62038,49.42266 59.11291,57.20106 25.50109,7.78993 54.84515,3.90505 88.0436,-11.64022 11.2353,-5.25669 21.78069,-11.86501 31.63617,-19.80192 7.69736,-6.20485 19.08946,-17.57417 25.33573,-25.27475 3.45241,-4.25377 6.65965,-8.64587 9.63311,-13.18207 l 10.44561,-18.55404 75.04646,22.30346 c -9.52193,20.60023 -21.53552,39.6269 -36.06928,57.08579 -7.51776,9.01764 -20.87982,22.61759 -29.7774,30.24901 -16.96271,14.57982 -35.24823,26.46789 -54.87081,35.65557 z"
       style="fill:#000000;fill-opacity:0;fill-rule:nonzero;stroke:none;stroke-width:2.86637" />
  </g>
</svg>
